<svg width="39" height="39" viewBox="0 0 39 39" fill="none" xmlns="http://www.w3.org/2000/svg">
<path d="M19.0833 36.1667C28.5182 36.1667 36.1667 28.5182 36.1667 19.0833C36.1667 9.64847 28.5182 2 19.0833 2C9.64847 2 2 9.64847 2 19.0833C2 28.5182 9.64847 36.1667 19.0833 36.1667Z" stroke="#4229C9" stroke-width="4" stroke-linecap="round" stroke-linejoin="round"/>
<path d="M19.0833 29.3333C24.7443 29.3333 29.3333 24.7443 29.3333 19.0833C29.3333 13.4224 24.7443 8.83333 19.0833 8.83333C13.4224 8.83333 8.83333 13.4224 8.83333 19.0833C8.83333 24.7443 13.4224 29.3333 19.0833 29.3333Z" stroke="#4229C9" stroke-width="4" stroke-linecap="round" stroke-linejoin="round"/>
<path d="M19.0833 22.5C20.9703 22.5 22.5 20.9703 22.5 19.0833C22.5 17.1964 20.9703 15.6667 19.0833 15.6667C17.1964 15.6667 15.6667 17.1964 15.6667 19.0833C15.6667 20.9703 17.1964 22.5 19.0833 22.5Z" stroke="#4229C9" stroke-width="4" stroke-linecap="round" stroke-linejoin="round"/>
</svg>
