<svg width="23" height="33" viewBox="0 0 23 33" fill="none" xmlns="http://www.w3.org/2000/svg">
<path d="M1 31.75V28.3333C1 26.521 1.71994 24.7829 3.00144 23.5014C4.28294 22.2199 6.02102 21.5 7.83333 21.5H14.6667C16.479 21.5 18.2171 22.2199 19.4986 23.5014C20.7801 24.7829 21.5 26.521 21.5 28.3333V31.75M4.41667 7.83333C4.41667 9.64565 5.1366 11.3837 6.4181 12.6652C7.6996 13.9467 9.43769 14.6667 11.25 14.6667C13.0623 14.6667 14.8004 13.9467 16.0819 12.6652C17.3634 11.3837 18.0833 9.64565 18.0833 7.83333C18.0833 6.02102 17.3634 4.28294 16.0819 3.00144C14.8004 1.71994 13.0623 1 11.25 1C9.43769 1 7.6996 1.71994 6.4181 3.00144C5.1366 4.28294 4.41667 6.02102 4.41667 7.83333Z" stroke="#4229C9" stroke-width="2" stroke-linecap="round" stroke-linejoin="round"/>
</svg>
