<svg width="33" height="33" viewBox="0 0 33 33" fill="none" xmlns="http://www.w3.org/2000/svg">
<path d="M16.125 31.5C19.1659 31.5 22.1385 30.5983 24.6669 28.9089C27.1953 27.2194 29.166 24.8182 30.3296 22.0088C31.4933 19.1993 31.7978 16.108 31.2046 13.1255C30.6113 10.143 29.147 7.40347 26.9968 5.25324C24.8465 3.10301 22.107 1.63868 19.1245 1.04543C16.1421 0.452186 13.0507 0.756662 10.2412 1.92036C7.43183 3.08406 5.03058 5.05471 3.34116 7.58311C1.65173 10.1115 0.75 13.0841 0.75 16.125C0.75 18.667 1.365 21.0621 2.45833 23.1753L0.75 31.5L9.07471 29.7917C11.1862 30.8833 13.5847 31.5 16.125 31.5Z" stroke="#4229C9" stroke-width="1.5" stroke-linecap="round" stroke-linejoin="round"/>
</svg>
