<svg width="33" height="33" viewBox="0 0 33 33" fill="none" xmlns="http://www.w3.org/2000/svg">
<path d="M1 31.75V28.3333C1 26.521 1.71994 24.7829 3.00144 23.5014C4.28294 22.2199 6.02102 21.5 7.83333 21.5H14.6667C16.479 21.5 18.2171 22.2199 19.4986 23.5014C20.7801 24.7829 21.5 26.521 21.5 28.3333V31.75M23.2083 1.22208C24.6782 1.59843 25.981 2.45328 26.9114 3.65186C27.8417 4.85045 28.3467 6.32458 28.3467 7.84188C28.3467 9.35917 27.8417 10.8333 26.9114 12.0319C25.981 13.2305 24.6782 14.0853 23.2083 14.4617M31.75 31.75V28.3333C31.7413 26.8251 31.2339 25.3622 30.3069 24.1725C29.3799 22.9828 28.0853 22.1333 26.625 21.7562M4.41667 7.83333C4.41667 9.64565 5.1366 11.3837 6.4181 12.6652C7.6996 13.9467 9.43769 14.6667 11.25 14.6667C13.0623 14.6667 14.8004 13.9467 16.0819 12.6652C17.3634 11.3837 18.0833 9.64565 18.0833 7.83333C18.0833 6.02102 17.3634 4.28294 16.0819 3.00144C14.8004 1.71994 13.0623 1 11.25 1C9.43769 1 7.6996 1.71994 6.4181 3.00144C5.1366 4.28294 4.41667 6.02102 4.41667 7.83333Z" stroke="#1E72AB" stroke-width="2" stroke-linecap="round" stroke-linejoin="round"/>
</svg>
