<svg width="35" height="35" viewBox="0 0 35 35" fill="none" xmlns="http://www.w3.org/2000/svg">
<path d="M29.0417 3.41667H25.625V1.70833C25.625 1.25526 25.445 0.820734 25.1246 0.500359C24.8043 0.179985 24.3697 0 23.9167 0C23.4636 0 23.0291 0.179985 22.7087 0.500359C22.3883 0.820734 22.2083 1.25526 22.2083 1.70833V3.41667H11.9583V1.70833C11.9583 1.25526 11.7783 0.820734 11.458 0.500359C11.1376 0.179985 10.7031 0 10.25 0C9.79692 0 9.3624 0.179985 9.04203 0.500359C8.72165 0.820734 8.54167 1.25526 8.54167 1.70833V3.41667H5.125C3.76577 3.41667 2.4622 3.95662 1.50108 4.91774C0.539954 5.87887 0 7.18243 0 8.54167V29.0417C0 30.4009 0.539954 31.7045 1.50108 32.6656C2.4622 33.6267 3.76577 34.1667 5.125 34.1667H29.0417C30.4009 34.1667 31.7045 33.6267 32.6656 32.6656C33.6267 31.7045 34.1667 30.4009 34.1667 29.0417V8.54167C34.1667 7.18243 33.6267 5.87887 32.6656 4.91774C31.7045 3.95662 30.4009 3.41667 29.0417 3.41667ZM30.75 29.0417C30.75 29.4947 30.57 29.9293 30.2496 30.2496C29.9293 30.57 29.4947 30.75 29.0417 30.75H5.125C4.67192 30.75 4.2374 30.57 3.91703 30.2496C3.59665 29.9293 3.41667 29.4947 3.41667 29.0417V17.0833H30.75V29.0417ZM30.75 13.6667H3.41667V8.54167C3.41667 8.08859 3.59665 7.65407 3.91703 7.33369C4.2374 7.01332 4.67192 6.83333 5.125 6.83333H8.54167V8.54167C8.54167 8.99475 8.72165 9.42927 9.04203 9.74964C9.3624 10.07 9.79692 10.25 10.25 10.25C10.7031 10.25 11.1376 10.07 11.458 9.74964C11.7783 9.42927 11.9583 8.99475 11.9583 8.54167V6.83333H22.2083V8.54167C22.2083 8.99475 22.3883 9.42927 22.7087 9.74964C23.0291 10.07 23.4636 10.25 23.9167 10.25C24.3697 10.25 24.8043 10.07 25.1246 9.74964C25.445 9.42927 25.625 8.99475 25.625 8.54167V6.83333H29.0417C29.4947 6.83333 29.9293 7.01332 30.2496 7.33369C30.57 7.65407 30.75 8.08859 30.75 8.54167V13.6667Z" fill="#4229C9"/>
</svg>
